<?xml version="1.0" standalone="no"?>
<!DOCTYPE svg PUBLIC "-//W3C//DTD SVG 20010904//EN"
 "http://www.w3.org/TR/2001/REC-SVG-20010904/DTD/svg10.dtd">
<svg version="1.0" xmlns="http://www.w3.org/2000/svg"
 width="1114.000000pt" height="298.000000pt" viewBox="0 0 1114.000000 298.000000"
 preserveAspectRatio="xMidYMid meet">

<g transform="translate(0.000000,298.000000) scale(0.100000,-0.100000)"
fill="#000000" stroke="none">
<path d="M0 1490 l0 -1490 5570 0 5570 0 0 1490 0 1490 -5570 0 -5570 0 0
-1490z m1776 1292 c28 -18 34 -56 34 -204 0 -133 -3 -156 -19 -177 -20 -26
-61 -31 -86 -11 -12 10 -15 45 -15 193 0 159 2 181 18 193 19 15 51 18 68 6z
m-754 -209 c34 -39 168 -281 168 -303 0 -44 -51 -75 -86 -52 -14 8 -169 269
-178 299 -8 27 28 73 58 73 13 0 30 -8 38 -17z m1530 -14 c20 -26 20 -26 -6
-77 -42 -83 -127 -225 -149 -249 -11 -13 -28 -23 -37 -23 -27 0 -60 30 -60 55
0 21 110 222 163 298 24 35 62 33 89 -4z m-557 -393 c149 -40 299 -123 411
-227 44 -41 84 -93 84 -110 0 -14 -39 -49 -55 -49 -6 0 -40 25 -76 56 -159
139 -316 212 -503 235 -170 21 -330 -5 -481 -77 -149 -71 -265 -170 -352 -301
-19 -29 -37 -53 -39 -53 -18 0 92 145 157 207 230 220 530 297 854 219 39 -9
53 -10 40 -3 -11 7 -31 24 -46 40 -15 15 -32 27 -38 27 -6 0 -11 6 -11 14 0
18 -54 27 -206 32 -107 5 -133 2 -225 -21 -290 -74 -519 -258 -651 -525 -21
-41 -37 -70 -38 -65 0 6 17 44 38 85 123 245 343 430 602 507 125 37 171 42
315 38 96 -3 153 -11 220 -29z m-1527 -150 c178 -97 272 -158 272 -177 0 -4
-13 5 -29 19 -15 15 -46 36 -67 48 -21 11 -76 42 -121 67 -45 26 -91 47 -101
47 -45 0 -59 -66 -19 -93 12 -9 17 -16 10 -16 -14 -1 -53 46 -53 63 0 20 40
56 61 56 12 0 33 -6 47 -14z m2633 4 c12 -7 19 -21 19 -42 0 -29 -23 -68 -41
-68 -4 0 -61 -31 -126 -70 -126 -75 -173 -87 -193 -51 -28 54 -13 71 158 168
131 74 150 80 183 63z m-2566 -173 c6 -6 -12 2 -40 18 -27 15 -54 32 -60 38
-5 6 13 -2 40 -18 28 -15 55 -32 60 -38z m130 -75 c-4 -5 -115 57 -115 64 0 3
27 -10 59 -28 33 -18 58 -34 56 -36z m65 13 c-7 -8 -16 -15 -21 -15 -5 0 -1 8
9 18 20 22 31 19 12 -3z m1906 -76 c219 -65 374 -188 477 -380 63 -116 81
-196 82 -349 0 -150 -18 -229 -78 -345 -47 -90 -187 -260 -187 -227 0 6 9 16
19 21 25 14 111 123 145 185 64 116 101 272 93 391 -6 92 -37 217 -69 284 -93
190 -292 351 -498 402 -84 21 -291 18 -365 -5 -33 -10 -54 -21 -47 -23 6 -3
12 -15 12 -28 0 -13 -6 -26 -12 -28 -8 -3 -5 -6 5 -6 10 -1 26 3 35 8 54 29
337 30 366 1 5 -5 19 -10 29 -10 11 0 52 -16 92 -35 145 -70 268 -216 330
-392 21 -61 25 -91 25 -186 0 -126 -19 -201 -82 -319 -41 -77 -163 -202 -235
-241 -72 -38 -67 -27 5 14 121 68 234 216 278 364 23 75 26 279 5 340 -79 235
-235 388 -455 447 -88 23 -248 24 -331 3 -135 -36 -293 -142 -371 -250 l-22
-29 -36 19 c-20 11 -36 22 -36 26 0 13 59 92 115 154 125 138 308 213 526 214
89 1 131 -4 185 -20z m5341 -652 c-1 -122 -2 -22 -2 223 0 245 1 345 2 222 2
-122 2 -322 0 -445z m2820 -139 c-1 -150 -2 -30 -2 267 0 297 1 420 2 273 2
-147 2 -390 0 -540z m-6390 670 c-2 -13 -4 -3 -4 22 0 25 2 35 4 23 2 -13 2
-33 0 -45z m768 52 c3 -6 -1 -7 -9 -4 -18 7 -21 14 -7 14 6 0 13 -4 16 -10z
m579 -6 c3 -8 2 -12 -4 -9 -6 3 -10 10 -10 16 0 14 7 11 14 -7z m733 -726 c-1
-139 -2 -28 -2 247 0 275 1 389 2 253 2 -136 2 -361 0 -500z m773 738 c0 -2
-7 -7 -16 -10 -8 -3 -12 -2 -9 4 6 10 25 14 25 6z m-5003 -12 c-3 -3 -12 -4
-19 -1 -8 3 -5 6 6 6 11 1 17 -2 13 -5z m-1287 -34 c-6 -12 -14 -19 -17 -17
-2 3 1 15 7 27 6 12 14 19 17 17 2 -3 -1 -15 -7 -27z m6200 -13 c0 -2 -12 -14
-27 -28 l-28 -24 24 28 c23 25 31 32 31 24z m-6234 -63 c-8 -21 -15 -31 -15
-22 -1 18 20 70 26 65 2 -2 -3 -21 -11 -43z m-131 -20 l-15 -39 6 35 c7 38 14
54 20 47 2 -2 -3 -21 -11 -43z m3322 -546 c-1 -112 -2 -23 -2 197 0 220 1 311
2 203 2 -108 2 -288 0 -400z m610 350 c-1 -46 -3 -11 -3 77 0 88 2 125 3 83 2
-42 2 -114 0 -160z m2663 158 c0 -2 -7 -7 -16 -10 -8 -3 -12 -2 -9 4 6 10 25
14 25 6z m-6625 -111 l-14 -90 5 74 c5 75 15 134 20 116 2 -6 -3 -50 -11 -100z
m120 30 c-14 -46 -14 -47 -9 -10 6 50 16 83 20 70 2 -5 -3 -32 -11 -60z m6706
38 c13 -16 12 -17 -3 -4 -10 7 -18 15 -18 17 0 8 8 3 21 -13z m-6906 -9 c1 -5
6 -19 13 -31 11 -20 7 -26 -60 -77 -40 -30 -93 -80 -117 -110 -24 -31 -46 -56
-48 -56 -7 0 36 60 82 115 l42 50 -23 23 c-28 27 -42 21 -119 -48 -53 -49 -33
-16 25 39 79 75 204 133 205 95z m4462 -36 c-3 -7 -5 -2 -5 12 0 14 2 19 5 13
2 -7 2 -19 0 -25z m5033 9 c0 -2 -12 -14 -27 -28 l-28 -24 24 28 c23 25 31 32
31 24z m-9286 -422 c29 -115 29 -120 -6 -133 -37 -14 -49 -7 -73 44 -26 55
-65 222 -64 273 1 40 3 35 14 -34 17 -109 33 -157 48 -148 13 8 18 10 41 12
11 1 13 33 11 174 l-3 172 8 -145 c3 -80 15 -176 24 -215z m4236 321 c0 -2 -8
-10 -17 -17 -16 -13 -17 -12 -4 4 13 16 21 21 21 13z m-4752 -106 c-40 -65
-47 -65 -11 0 15 27 31 50 35 50 4 0 -7 -22 -24 -50z m4792 0 c0 -5 -5 -10
-11 -10 -5 0 -7 5 -4 10 3 6 8 10 11 10 2 0 4 -4 4 -10z m850 -36 c0 -8 -19
-13 -24 -6 -3 5 1 9 9 9 8 0 15 -2 15 -3z m2347 -26 c-3 -7 -5 -2 -5 12 0 14
2 19 5 13 2 -7 2 -19 0 -25z m-7897 4 c0 -5 -7 -17 -15 -28 -14 -18 -14 -17
-4 9 12 27 19 34 19 19z m-144 -43 c-9 -19 -15 -29 -16 -22 0 15 22 64 27 60
2 -2 -3 -19 -11 -38z m4401 -231 c-1 -51 -3 -12 -3 87 0 99 2 141 3 93 2 -48
2 -129 0 -180z m3630 155 c-2 -16 -4 -5 -4 22 0 28 2 40 4 28 2 -13 2 -35 0
-50z m-8053 -7 c-3 -21 -8 -35 -11 -32 -2 2 -1 20 3 40 3 21 8 35 11 32 2 -2
1 -20 -3 -40z m111 -11 c-7 -28 -14 -43 -14 -35 -1 19 19 93 24 88 2 -2 -2
-26 -10 -53z m7952 -67 c-3 -7 -5 -2 -5 12 0 14 2 19 5 13 2 -7 2 -19 0 -25z
m-8080 -85 c-2 -21 -4 -6 -4 32 0 39 2 55 4 38 2 -18 2 -50 0 -70z m7313 63
c0 -2 -8 -10 -17 -17 -16 -13 -17 -12 -4 4 13 16 21 21 21 13z m-269 -23 c13
-16 12 -17 -3 -4 -17 13 -22 21 -14 21 2 0 10 -8 17 -17z m2319 -17 c0 -2 -8
-10 -17 -17 -16 -13 -17 -12 -4 4 13 16 21 21 21 13z m793 -43 c-7 -2 -21 -2
-30 0 -10 3 -4 5 12 5 17 0 24 -2 18 -5z m-10030 -58 c5 -28 4 -34 -3 -20 -8
19 -14 73 -6 64 2 -2 6 -22 9 -44z m-105 -55 c0 -9 -3 -7 -8 5 -5 11 -8 29 -8
40 0 16 2 15 8 -5 4 -14 8 -32 8 -40z m4089 -27 c-2 -16 -4 -5 -4 22 0 28 2
40 4 28 2 -13 2 -35 0 -50z m5264 44 c-10 -9 -11 -8 -5 6 3 10 9 15 12 12 3
-3 0 -11 -7 -18z m480 -4 c13 -16 12 -17 -3 -4 -17 13 -22 21 -14 21 2 0 10
-8 17 -17z m389 -17 c0 -2 -8 -10 -17 -17 -16 -13 -17 -12 -4 4 13 16 21 21
21 13z m-10201 -58 c6 -18 7 -28 2 -23 -10 12 -25 55 -18 55 3 0 10 -15 16
-32z m131 -8 c6 -11 8 -20 6 -20 -3 0 -10 9 -16 20 -6 11 -8 20 -6 20 3 0 10
-9 16 -20z m8935 -8 c-3 -3 -11 0 -18 7 -9 10 -8 11 6 5 10 -3 15 -9 12 -12z
m-9031 -59 c9 -18 14 -33 12 -33 -6 0 -36 55 -36 66 0 11 5 3 24 -33z m126 12
c14 -19 14 -19 -2 -6 -10 7 -18 18 -18 24 0 6 1 8 3 6 1 -2 9 -13 17 -24z m50
-60 c19 -19 32 -35 29 -35 -3 0 -20 16 -39 35 -19 19 -32 35 -29 35 3 0 20
-16 39 -35z m-124 -32 c15 -20 23 -33 16 -29 -13 8 -56 66 -49 66 3 0 17 -17
33 -37z m264 -80 c0 -7 -81 41 -92 55 -7 7 12 -1 40 -19 29 -17 52 -34 52 -36z
m-210 16 c0 -6 -4 -7 -10 -4 -5 3 -10 11 -10 16 0 6 5 7 10 4 6 -3 10 -11 10
-16z m2195 -40 c-22 -10 -47 -18 -55 -18 -8 0 5 8 30 19 59 24 76 24 25 -1z
m245 12 c0 -5 -7 -12 -16 -15 -14 -5 -15 -4 -4 9 14 17 20 19 20 6z m-2133
-27 c-3 -3 -12 -4 -19 -1 -8 3 -5 6 6 6 11 1 17 -2 13 -5z m2093 2 c0 -5 -73
-52 -95 -60 -28 -10 -12 3 42 35 52 30 53 31 53 25z m-316 -18 c-49 -9 -1698
-8 -1738 1 -17 3 377 6 874 6 496 0 885 -3 864 -7z m-1954 -35 c0 -7 -39 17
-46 28 -3 6 5 3 20 -6 14 -10 26 -19 26 -22z m55 -31 c-3 -3 -11 0 -18 7 -9
10 -8 11 6 5 10 -3 15 -9 12 -12z m2090 9 c-12 -11 -146 -53 -152 -47 -2 2 31
15 74 29 95 30 89 29 78 18z m-2015 -33 c10 -6 7 -7 -10 -2 -14 3 -32 11 -40
16 -10 6 -7 7 10 2 14 -3 32 -11 40 -16z m117 -24 c-3 -3 -12 -4 -19 -1 -8 3
-5 6 6 6 11 1 17 -2 13 -5z m1696 -1 c-7 -2 -21 -2 -30 0 -10 3 -4 5 12 5 17
0 24 -2 18 -5z m-461 -10 c-228 -2 -597 -2 -820 0 -224 1 -38 2 413 2 451 0
634 -1 407 -2z"/>
<path d="M952 2558 c-23 -23 -17 -39 101 -240 43 -75 55 -88 77 -88 28 0 50
16 50 37 0 7 -20 46 -45 86 -25 41 -45 77 -45 80 0 6 -64 107 -80 125 -14 15
-42 16 -58 0z"/>
<path d="M2110 1630 c0 -24 32 -72 41 -63 6 6 3 21 -8 41 -18 32 -33 41 -33
22z"/>
<path d="M2026 1581 c-3 -5 1 -12 10 -15 8 -3 12 -10 9 -16 -3 -5 -1 -10 5
-10 6 0 8 -4 5 -10 -7 -11 8 -14 17 -4 7 6 -24 64 -34 64 -4 0 -9 -4 -12 -9z"/>
</g>
</svg>
